# xmcd
#
# Track frame offsets:
#	150
#	17191
#	29818
#	46207
#	55397
#	70110
#	85798
#	99279
#	111826
#	124807
#	138785
#	157642
#	171887
#	184383
#	198056
#	211188
#	224573
#	239314
#
# Disc length: 3441 seconds
#
# Revision: 0
# Processed by: cddbd v1.5.2PL0 Copyright (c) Steve Scherf et al.
# Submitted via: audiograbber 1.83.01
#
DISCID=f70d6f12
DTITLE=Various Artist - Custom Music CD
DYEAR=2009
DGENRE=Country
TTITLE0=Daryle Singletary - Love You With The Lights On
TTITLE1=Michael Thomas - Nobody Else
TTITLE2=Rustie Blue - Cowgirls Do It Better
TTITLE3=John Long - Wish I Had A Job To Shove
TTITLE4=Deborah Allen - Last Time For Everything
TTITLE5=Pete Schlegel - Leavin Aint As Easy As It Sounds
TTITLE6=Bill Rhoads - Too Many California Memories
TTITLE7=Bill Durham - Teardrops In My Tequila
TTITLE8=Ron Thompson - Smoky Mountain Bear Race
TTITLE9=Eddie Eastman - Mexico In Our Backyard
TTITLE10=Razzy Bailey - Whiskey California
TTITLE11=Randy Archer - Shots in The Dark
TTITLE12=Jim Cristaldi - Take Me
TTITLE13=Rachel Cristaldi - I Found Me
TTITLE14=Tracy Stefans - It Happens
TTITLE15=The Tin Ridge Band - In This Little Town
TTITLE16=Wild Wild Westt - Making Memories
TTITLE17=Steve Oliver - Mamas Kitchen Table
EXTD=
EXTT0=
EXTT1=
EXTT2=
EXTT3=
EXTT4=
EXTT5=
EXTT6=
EXTT7=
EXTT8=
EXTT9=
EXTT10=
EXTT11=
EXTT12=
EXTT13=
EXTT14=
EXTT15=
EXTT16=
EXTT17=
PLAYORDER=
